HIERARCHY
ROOT Hips
{
    OFFSET   0.000000   0.000000   0.000000
    CHANNELS 6 Xposition Yposition Zposition Zrotation Xrotation Yrotation
    JOINT Chest
    {
        OFFSET   0.000000   8.007230   0.000000
        CHANNELS 3 Zrotation Xrotation Yrotation
        JOINT Chest2
        {
            OFFSET   0.000000  22.077100   0.000000
            CHANNELS 3 Zrotation Xrotation Yrotation
            JOINT Neck
            {
                OFFSET   0.000000  23.254800  -0.000021
                CHANNELS 3 Zrotation Xrotation Yrotation
                JOINT Head
                {
                    OFFSET   0.000000  14.370000   1.956610
                    CHANNELS 3 Zrotation Xrotation Yrotation
                    End Site
                    {
                        OFFSET   0.000000  19.566000   0.000000
                    }
                }
            }
            JOINT LeftCollar
            {
                OFFSET   3.911900  19.017000  -0.467063
                CHANNELS 3 Zrotation Xrotation Yrotation
                JOINT LeftShoulder
                {
                    OFFSET  10.383700   0.000000   0.000000
                    CHANNELS 3 Zrotation Xrotation Yrotation
                    JOINT LeftElbow
                    {
                        OFFSET  26.662100   0.001529   0.000325
                        CHANNELS 3 Zrotation Xrotation Yrotation
                        JOINT LeftWrist
                        {
                            OFFSET  28.869000  -0.000011  -0.000096
                            CHANNELS 3 Zrotation Xrotation Yrotation
                            JOINT LeftFinger0
                            {
                                OFFSET   2.044650  -2.323460   3.252850
                                CHANNELS 3 Zrotation Xrotation Yrotation
                                JOINT LeftFinger01
                                {
                                    OFFSET   3.088130   0.000000   0.000000
                                    CHANNELS 3 Zrotation Xrotation Yrotation
                                    JOINT LeftFinger02
                                    {
                                        OFFSET   2.639460   0.000000   0.000000
                                        CHANNELS 3 Zrotation Xrotation Yrotation
                                        End Site
                                        {
                                            OFFSET   2.582190   0.000000   0.000000
                                        }
                                    }
                                }
                            }
                            JOINT LeftFinger1
                            {
                                OFFSET   8.364480   0.000000   3.252850
                                CHANNELS 3 Zrotation Xrotation Yrotation
                                JOINT LeftFinger11
                                {
                                    OFFSET   4.646930   0.000000   0.000000
                                    CHANNELS 3 Zrotation Xrotation Yrotation
                                    JOINT LeftFinger12
                                    {
                                        OFFSET   2.323460   0.000000   0.000000
                                        CHANNELS 3 Zrotation Xrotation Yrotation
                                        End Site
                                        {
                                            OFFSET   2.273050   0.000000   0.000000
                                        }
                                    }
                                }
                            }
                            JOINT LeftFinger2
                            {
                                OFFSET   8.364480   0.000016   1.078090
                                CHANNELS 3 Zrotation Xrotation Yrotation
                                JOINT LeftFinger21
                                {
                                    OFFSET   5.111620   0.000000   0.000000
                                    CHANNELS 3 Zrotation Xrotation Yrotation
                                    JOINT LeftFinger22
                                    {
                                        OFFSET   2.788160   0.000017   0.000000
                                        CHANNELS 3 Zrotation Xrotation Yrotation
                                        End Site
                                        {
                                            OFFSET   2.727660   0.000000   0.000000
                                        }
                                    }
                                }
                            }
                            JOINT LeftFinger3
                            {
                                OFFSET   7.899780   0.000015  -1.078090
                                CHANNELS 3 Zrotation Xrotation Yrotation
                                JOINT LeftFinger31
                                {
                                    OFFSET   4.646920   0.000000   0.000000
                                    CHANNELS 3 Zrotation Xrotation Yrotation
                                    JOINT LeftFinger32
                                    {
                                        OFFSET   2.323470   0.000000   0.000000
                                        CHANNELS 3 Zrotation Xrotation Yrotation
                                        End Site
                                        {
                                            OFFSET   2.273050   0.000000   0.000000
                                        }
                                    }
                                }
                            }
                            JOINT LeftFinger4
                            {
                                OFFSET   7.435090   0.000000  -3.252850
                                CHANNELS 3 Zrotation Xrotation Yrotation
                                JOINT LeftFinger41
                                {
                                    OFFSET   3.717550   0.000000   0.000000
                                    CHANNELS 3 Zrotation Xrotation Yrotation
                                    JOINT LeftFinger42
                                    {
                                        OFFSET   1.858760   0.000000   0.000000
                                        CHANNELS 3 Zrotation Xrotation Yrotation
                                        End Site
                                        {
                                            OFFSET   1.818440   0.000000   0.000000
                                        }
                                    }
                                }
                            }
                        }
                    }
                }
            }
            JOINT RightCollar
            {
                OFFSET  -3.911900  19.017000  -0.467062
                CHANNELS 3 Zrotation Xrotation Yrotation
                JOINT RightShoulder
                {
                    OFFSET -10.383700   0.000015   0.000000
                    CHANNELS 3 Zrotation Xrotation Yrotation
                    JOINT RightElbow
                    {
                        OFFSET -26.662100   0.001341   0.000385
                        CHANNELS 3 Zrotation Xrotation Yrotation
                        JOINT RightWrist
                        {
                            OFFSET -28.869000   0.000025  -0.000080
                            CHANNELS 3 Zrotation Xrotation Yrotation
                            JOINT RightFinger0
                            {
                                OFFSET  -2.044650  -2.323490   3.252850
                                CHANNELS 3 Zrotation Xrotation Yrotation
                                JOINT RightFinger01
                                {
                                    OFFSET  -3.088130   0.000000   0.000000
                                    CHANNELS 3 Zrotation Xrotation Yrotation
                                    JOINT RightFinger02
                                    {
                                        OFFSET  -2.639460   0.000000   0.000000
                                        CHANNELS 3 Zrotation Xrotation Yrotation
                                        End Site
                                        {
                                            OFFSET  -2.582190   0.000000   0.000000
                                        }
                                    }
                                }
                            }
                            JOINT RightFinger1
                            {
                                OFFSET  -8.364480   0.000000   3.252850
                                CHANNELS 3 Zrotation Xrotation Yrotation
                                JOINT RightFinger11
                                {
                                    OFFSET  -4.646930   0.000000   0.000000
                                    CHANNELS 3 Zrotation Xrotation Yrotation
                                    JOINT RightFinger12
                                    {
                                        OFFSET  -2.323470   0.000000   0.000000
                                        CHANNELS 3 Zrotation Xrotation Yrotation
                                        End Site
                                        {
                                            OFFSET  -2.273050   0.000000   0.000000
                                        }
                                    }
                                }
                            }
                            JOINT RightFinger2
                            {
                                OFFSET  -8.364480   0.000000   1.078090
                                CHANNELS 3 Zrotation Xrotation Yrotation
                                JOINT RightFinger21
                                {
                                    OFFSET  -5.111610   0.000000   0.000000
                                    CHANNELS 3 Zrotation Xrotation Yrotation
                                    JOINT RightFinger22
                                    {
                                        OFFSET  -2.788160   0.000000   0.000000
                                        CHANNELS 3 Zrotation Xrotation Yrotation
                                        End Site
                                        {
                                            OFFSET  -2.727660   0.000000   0.000000
                                        }
                                    }
                                }
                            }
                            JOINT RightFinger3
                            {
                                OFFSET  -7.899780   0.000000  -1.078090
                                CHANNELS 3 Zrotation Xrotation Yrotation
                                JOINT RightFinger31
                                {
                                    OFFSET  -4.646920   0.000000   0.000000
                                    CHANNELS 3 Zrotation Xrotation Yrotation
                                    JOINT RightFinger32
                                    {
                                        OFFSET  -2.323470   0.000000   0.000000
                                        CHANNELS 3 Zrotation Xrotation Yrotation
                                        End Site
                                        {
                                            OFFSET  -2.273050   0.000000   0.000000
                                        }
                                    }
                                }
                            }
                            JOINT RightFinger4
                            {
                                OFFSET  -7.435090   0.000000  -3.252850
                                CHANNELS 3 Zrotation Xrotation Yrotation
                                JOINT RightFinger41
                                {
                                    OFFSET  -3.717550   0.000000   0.000000
                                    CHANNELS 3 Zrotation Xrotation Yrotation
                                    JOINT RightFinger42
                                    {
                                        OFFSET  -1.858770   0.000000   0.000000
                                        CHANNELS 3 Zrotation Xrotation Yrotation
                                        End Site
                                        {
                                            OFFSET  -1.818440   0.000000   0.000000
                                        }
                                    }
                                }
                            }
                        }
                    }
                }
            }
        }
    }
    JOINT LeftHip
    {
        OFFSET   9.783010   0.000000   0.000000
        CHANNELS 3 Zrotation Xrotation Yrotation
        JOINT LeftKnee
        {
            OFFSET   0.000070 -41.789100   0.000028
            CHANNELS 3 Zrotation Xrotation Yrotation
            JOINT LeftAnkle
            {
                OFFSET   0.000087 -41.133200  -0.000100
                CHANNELS 3 Zrotation Xrotation Yrotation
                JOINT LeftToe
                {
                    OFFSET   0.000000  -6.358960  14.674500
                    CHANNELS 3 Zrotation Xrotation Yrotation
                    End Site
                    {
                        OFFSET   0.000000   0.000000   3.913200
                    }
                }
            }
        }
    }
    JOINT RightHip
    {
        OFFSET  -9.783020   0.000000   0.000000
        CHANNELS 3 Zrotation Xrotation Yrotation
        JOINT RightKnee
        {
            OFFSET   0.000044 -41.789100  -0.000870
            CHANNELS 3 Zrotation Xrotation Yrotation
            JOINT RightAnkle
            {
                OFFSET  -0.000090 -41.133200  -0.000245
                CHANNELS 3 Zrotation Xrotation Yrotation
                JOINT RightToe
                {
                    OFFSET   0.000000  -6.358960  14.674500
                    CHANNELS 3 Zrotation Xrotation Yrotation
                    End Site
                    {
                        OFFSET   0.000000   0.000000   3.913200
                    }
                }
            }
        }
    }
}
MOTION
Frames: 4
Frame Time:   0.016667
 -1.701110  89.400800   2.229640  -1.350060  -9.133470  -5.542230   0.766343   5.582260  -1.059070   1.648600  11.148800  -2.209260   0.888718   2.130650  -0.030419   1.465590   4.317050  27.989800  -2.484300   4.028450   6.859280 -80.856300  11.699300  -1.161520  -2.464610  -3.810710 -15.183500   7.857740  -6.921980  -5.519610  37.301500  27.856400 -52.878800 -32.156100  -0.000375   0.006113 -11.078000  -0.000696   0.002986 -29.850900  -1.517960   2.642860 -24.452100  -0.000611  -0.000898 -17.116500  -0.000524  -0.001761 -25.858500  -4.291590   8.777040 -26.188000  -0.078338   0.043869 -17.441200  -0.059111   0.006292 -28.234900  -4.654080   8.591080 -37.250000  -0.030972   0.028621 -24.808500  -0.025178   0.012511 -33.764200  -5.462200   8.103600 -51.227100  -0.085033   0.005411 -34.117200  -0.049736  -0.027574   3.470950   6.375930   5.038760  75.471500 -26.459900  59.326900 -11.884700 -20.500200  82.570600 -25.070000  35.415200   3.103710 -30.816900  35.870600  70.274400  45.383800   0.003914  -0.006744  20.769600   0.005175  -0.001110 -10.810200   1.498800  -7.804260   0.000000   0.001665  -0.001702   0.000000   0.001158  -0.000696  88.990700  -7.944870  -0.139415  90.926000  -0.001314   0.000489  68.194500  -0.005915   0.003325  88.990900  -7.944880  -0.139572  92.121400  -0.001358   0.001015  69.091000  -0.000652   0.004245  85.562500  -9.972050  -0.769798 110.000000  -0.003236   0.000547  80.000000  -0.000471  -0.001006   2.902640  10.318900  -0.536695   0.387165   3.442470  14.094500  -3.850160  -4.444780  -0.975925  -0.000000   0.000000   0.000000   1.103880   9.711160  -4.602990  -0.395421   3.518760 -12.427000   1.054780  -3.855320   3.222410  -0.000000   0.000000   0.000000
 -1.687260  89.404100   2.230700  -1.341540  -9.120070  -5.451880   0.729184   5.558260  -1.048360   1.572160  11.101700  -2.184080   0.949908   2.121050  -0.031018   1.573320   4.297110  27.866600  -2.474720   4.032660   6.848620 -80.839500  11.550000  -1.100900  -2.463560  -3.813670 -15.212700   7.809010  -6.934310  -5.509190  37.312800  27.873600 -52.904900 -32.144900   0.016600   0.013646 -11.072500   0.009028  -0.003895 -29.841400  -1.520760   2.645890 -24.444500  -0.011752   0.007143 -17.111100  -0.009503  -0.001551 -25.957300  -4.298100   8.751900 -26.286400  -0.072168   0.036136 -17.506800  -0.053453   0.006286 -28.238500  -4.645300   8.573390 -37.299700  -0.037779   0.020832 -24.841600  -0.028089   0.005931 -33.781200  -5.453690   8.085490 -51.250800  -0.061304   0.010264 -34.133000  -0.037120  -0.018987   3.472650   6.399490   5.029330  75.325100 -26.348400  59.259200 -11.982200 -20.792900  82.508300 -25.052100  35.457200   3.069300 -30.839400  35.936400  70.317700  45.432700   0.004170  -0.007114  20.814500   0.005528  -0.001208 -10.497500   1.427980  -7.663890   0.000000   0.001639  -0.001543   0.000000   0.001149  -0.000615  88.991000  -7.793780  -0.138449  91.063000  -0.001321   0.000645  68.297300  -0.005792   0.003131  88.991300  -7.793780  -0.138559  92.246700  -0.001467   0.001107  69.184900  -0.000609   0.004385  85.678000  -9.972160  -0.749768 110.000000  -0.003281   0.000529  80.000000  -0.000499  -0.001019   2.911230  10.290500  -0.555541   0.377433   3.441110  14.023400  -3.834870  -4.443850  -0.975521  -0.000000   0.000000   0.000000   1.078800   9.734310  -4.593530  -0.346578   3.460830 -12.513600   1.049090  -3.839070   3.212590   0.000000   0.000000  -0.000000
 -1.668490  89.408600   2.231300  -1.330860  -9.100280  -5.356850   0.695739   5.531420  -1.045270   1.503850  11.048700  -2.173560   0.990384   2.109430  -0.031271   1.633010   4.273740  27.763200  -2.464650   4.036860   6.839990 -80.815100  11.418200  -1.043930  -2.455960  -3.816810 -15.232000   7.722950  -6.938690  -5.496620  37.318100  27.883700 -52.916500 -32.143300   0.027215   0.017176 -11.071700   0.015635  -0.010797 -29.826700  -1.522680   2.648570 -24.432500  -0.022893   0.015185 -17.102700  -0.018482  -0.001340 -26.058300  -4.304370   8.726210 -26.386900  -0.058622   0.022426 -17.573700  -0.041773   0.006246 -28.241800  -4.636040   8.555490 -37.321300  -0.044585   0.013297 -24.855900  -0.030999  -0.000062 -33.789800  -5.443270   8.068210 -51.261000  -0.037138   0.015117 -34.139800  -0.025758  -0.005685   3.471690   6.433190   5.021950  75.125500 -26.223100  59.173700 -12.117400 -21.076800  82.428200 -25.039100  35.505900   3.043060 -30.841300  35.948900  70.321600  45.520300   0.004420  -0.007479  20.898800   0.005877  -0.001310 -10.252100   1.373690  -7.552420   0.000000   0.001603  -0.001380   0.000000   0.001133  -0.000530  88.991200  -7.674360  -0.138072  91.212000  -0.001344   0.000795  68.409000  -0.005673   0.002938  88.991400  -7.674360  -0.138214  92.367600  -0.001586   0.001193  69.275600  -0.000571   0.004533  85.778100  -9.972250  -0.732418 110.000000  -0.003325   0.000515  80.000000  -0.000528  -0.001033   2.919130  10.262100  -0.573281   0.360153   3.429850  13.951300  -3.816640  -4.438540  -0.975457  -0.000000   0.000000  -0.000000   1.040510   9.746210  -4.575620  -0.294927   3.402350 -12.600500   1.045930  -3.820140   3.189960   0.000000   0.000000   0.000000
 -1.645170  89.412400   2.231720  -1.319720  -9.072110  -5.258540   0.667653   5.502010  -1.045750   1.446700  10.990400  -2.171110   1.005990   2.098110  -0.031611   1.651740   4.250550  27.675600  -2.454200   4.036870   6.835570 -80.783100  11.335500  -0.998703  -2.428320  -3.789170 -15.224800   7.637340  -6.918560  -5.479620  37.330000  27.923100 -52.944200 -32.149800   0.027212   0.017173 -11.074900   0.015644  -0.010821 -29.802100  -1.524370   2.657500 -24.412400  -0.009759   0.006753 -17.088700  -0.007881  -0.001345 -26.138600  -4.308220   8.705850 -26.466600  -0.038964   0.006253 -17.626800  -0.025958   0.005987 -28.244400  -4.628680   8.541540 -37.307500  -0.037836   0.001522 -24.846700  -0.025001  -0.005364 -33.773300  -5.432480   8.057350 -51.233700  -0.006946   0.013947 -34.121700  -0.008447   0.004591   3.473450   6.449920   5.015630  74.844400 -26.103700  59.072800 -12.207600 -21.340700  82.323400 -24.967600  35.514100   3.033040 -30.733600  35.781200  70.158200  45.626100   0.004674  -0.007824  21.011800   0.006213  -0.001419 -10.045900   1.334620  -7.492010   0.000000   0.001558  -0.001217   0.000000   0.001097  -0.000433  88.991200  -7.606840  -0.138088  91.314700  -0.001385   0.000942  68.486000  -0.005548   0.002730  88.991500  -7.606840  -0.137735  92.434900  -0.001733   0.001281  69.326100  -0.000537   0.004682  85.830600  -9.972310  -0.723304 110.000000  -0.003351   0.000513  80.000000  -0.000561  -0.001061   2.924600  10.232800  -0.593573   0.346391   3.402270  13.885500  -3.796600  -4.426620  -0.982529   0.000000   0.000000  -0.000000   1.000200   9.745600  -4.519160  -0.243632   3.350580 -12.706600   1.049920  -3.801350   3.147510  -0.000000   0.000000   0.000000
